# xmcd CD database file
#
# Track frame offsets:
#	150
#	13162
#	26260
#	37031
#	46250
#	59404
#	69481
#	79420
#	89332
#	102093
#	116835
#	128558
#	138999
#	147018
#	159451
#	171784
#
# Disc length: 2463 seconds
#
# Revision: 3
# Processed by: cddbd v1.5.2PL0 Copyright (c) Steve Scherf et al.
# Submitted via: CDex 1.51
#
DISCID=d4099d10
DTITLE=Various Artist - Country and Trucker Gold
DYEAR=1900
DGENRE=Country
TTITLE0=Lynn Anderson - Rose Garden
TTITLE1=Kenny Rogers - Ruby Don't Take Your Love To Town
TTITLE2=Roger Miller - King Of The Road
TTITLE3=George Jones - The Race Is On
TTITLE4=Glen Campbell - Rhinestone Cowboy
TTITLE5=Dave Dudley - Six Days On The Road
TTITLE6=Carl Perkins - Blue Suede Shoes
TTITLE7=Leroy Van Dyke - Walk On By
TTITLE8=Charlie Rich - The Most Beautiful Girl
TTITLE9=Jeannie C. Riley - Harper Valley P. T. A.
TTITLE10=Del Reeves - Girl On The Billboard
TTITLE11=Buck Owens - Act Naturally
TTITLE12=Tom Jones - On The Road Again (Live)
TTITLE13=Kenny Rogers - Ruben James
TTITLE14=Bellamy Brothers - Let Your Love Flow
TTITLE15=Hank Williams - Jambalaya
EXTD=IST VON MAX BAHR GESCHÄNG
EXTT0=
EXTT1=
EXTT2=
EXTT3=
EXTT4=
EXTT5=
EXTT6=
EXTT7=
EXTT8=
EXTT9=
EXTT10=
EXTT11=
EXTT12=
EXTT13=
EXTT14=
EXTT15=
PLAYORDER=
